<svg xmlns="http://www.w3.org/2000/svg"><style>:root svg:not(:target){display:none}</style><svg viewBox="0 0 27 31" fill="none" id="advantage-clock"><path d="M6.12 0c-1.07 0-1.07 1.58 0 1.58h6.67v1.6a13.21 13.21 0 0 0-12.23 13.3c0 4.02 1.75 7.64 4.52 10.07.48.43.54 1.18.1 1.64l-1.53 1.55c-.75.69.36 1.75 1.03 1l2-2.03c.36-.34.88-.43 1.32-.21a12.79 12.79 0 0 0 11.1.06c.43-.21.96-.13 1.3.21l1.95 1.97c.68.64 1.66-.31 1.04-1l-1.45-1.48c-.45-.45-.38-1.2.1-1.63a13.47 13.47 0 0 0 4.62-10.16 13.2 13.2 0 0 0-12.27-13.28v-1.6h6.67c1.06 0 1.06-1.59 0-1.59h-14.94Zm-4.12 16.47c0-6.53 5.2-11.82 11.6-11.82 6.41 0 11.6 5.3 11.6 11.82 0 6.55-5.19 11.85-11.6 11.85-6.4 0-11.6-5.3-11.6-11.85Zm10.8-8.09c0-1.1 1.66-1.1 1.66 0v8.63c0 .23-.09.44-.25.6a.86.86 0 0 1-.6.25.82.82 0 0 1-.57-.23.8.8 0 0 1-.24-.56v-8.69Zm-5 2.62c.31 0 .61-.12.83-.34a1.14 1.14 0 0 0-.82-1.96c-.3.02-.56.16-.75.37a1.14 1.14 0 0 0 .75 1.92Zm11.6 0c.31 0 .6-.12.82-.34a1.14 1.14 0 0 0-.82-1.96 1.14 1.14 0 0 0 0 2.29Zm-10.43 12.59c0 1.53-2.33 1.53-2.33 0s2.33-1.53 2.33 0Zm4.64 3.44a1.18 1.18 0 0 0 1.17-.68 1.14 1.14 0 0 0-.7-1.56 1.17 1.17 0 0 0-1.22.32 1.14 1.14 0 0 0 .75 1.92Zm-8.12-10.39a1.14 1.14 0 0 1-.69 1.17 1.17 1.17 0 0 1-1.57-.7 1.14 1.14 0 0 1 .32-1.2 1.17 1.17 0 0 1 1.94.73Zm17.39 1.15a1.17 1.17 0 0 0 1.17-.68 1.14 1.14 0 0 0-.7-1.55 1.17 1.17 0 0 0-1.22.32 1.14 1.14 0 0 0 .75 1.91Zm-2.32 5.8c0 1.53-2.32 1.53-2.32 0s2.32-1.53 2.32 0Z" fill="#fff"></path></svg><svg viewBox="0 0 26 30" fill="none" id="advantage-dining"><path fill-rule="evenodd" clip-rule="evenodd" d="M19.12.08a1 1 0 0 1 1.09.21c.9.91 2.1 2.88 3.06 5.92a42.6 42.6 0 0 1 1.73 12.79 1 1 0 0 1-1 1h-3.5v9a1 1 0 1 1-2 0v-28a1 1 0 0 1 .62-.92Zm1.38 17.92h2.5a39.62 39.62 0 0 0-1.64-11.19 22.4 22.4 0 0 0-.86-2.3v13.49Zm-14-18a1 1 0 0 1 1 1v28a1 1 0 1 1-2 0v-28a1 1 0 0 1 1-1Z" fill="#fff"></path><path fill-rule="evenodd" clip-rule="evenodd" d="M2 0a1 1 0 0 1 1 1v5.5c0 .56.2 1.32.7 1.92.48.56 1.31 1.08 2.8 1.08a1 1 0 1 1 0 2 5.41 5.41 0 0 1-4.33-1.8 5.07 5.07 0 0 1-1.17-3.2v-5.5a1 1 0 0 1 1-1Z" fill="#fff"></path><path fill-rule="evenodd" clip-rule="evenodd" d="M11 0a1 1 0 0 0-1 1v5.5c0 .56-.2 1.32-.7 1.92-.48.56-1.31 1.08-2.8 1.08a1 1 0 0 0 0 2 5.4 5.4 0 0 0 4.33-1.8 5.07 5.07 0 0 0 1.17-3.2v-5.5a1 1 0 0 0-1-1Z" fill="#fff"></path></svg><svg viewBox="0 0 30 32" fill="none" id="advantage-leaf"><g clip-path="url(#advantage-leaf_0)"><path d="M27.84 2.77a.95.95 0 0 0-.9-.77h-.01c-4.94.03-16.95.92-21.8 8.38-2.51 3.88-2.73 8.91-.64 14.96l.07.13a25.93 25.93 0 0 0-1.04 3.32 1 1 0 0 0 .72 1.19l.2.02c.43 0 .81-.32.9-.79.03-.1 2.42-10.37 10.86-16.38.43-.3.55-.93.26-1.38a.9.9 0 0 0-1.3-.28c-4.79 3.4-7.74 8-9.47 11.65-1.24-4.57-.92-8.37.99-11.3 3.74-5.76 12.62-7.15 17.98-7.45-1.16 1.8-2.41 5.1-2.41 10.93 0 3.12-.83 5.52-2.47 7.14-2.62 2.6-6.88 2.83-10 2.58-.51-.04-.96.38-1 .93-.04.55.35 1.03.86 1.07.63.05 1.3.08 1.98.08 3.18 0 6.87-.66 9.43-3.2 2.04-2 3.07-4.9 3.07-8.6 0-9.1 3.22-11.1 3.23-11.1.4-.21.6-.68.5-1.13Z" fill="#fff"></path></g><defs><clipPath id="advantage-leaf_0"><path fill="#fff" d="M0 0h30v32h-30z"></path></clipPath></defs></svg><svg viewBox="0 0 27 29" fill="none" id="advantage-powder"><path d="M11.38 0c-1.64 0-2.9 1.36-2.9 3.08s1.26 3.08 2.9 3.08c1.63 0 2.9-1.36 2.9-3.08s-1.27-3.08-2.9-3.08Zm0 1.18c1 0 1.72.84 1.72 1.9 0 1-.8 1.9-1.72 1.9-1 0-1.73-.84-1.73-1.9 0-1 .78-1.9 1.72-1.9Zm-10.88 23.56c0 1.18.4 2.18 1.36 3 1 .84 2.17.77 2.17.77h19.04c.77 0 1.8-.38 2.62-1.45.85-1 .8-2.36.8-2.36v-17.21c0-.44-.12-.6-.75-.6-.64 0-.69.27-.69.59v17.22c-.02.3-.07 1.08-.74 1.72-.74.62-1.45.54-1.45.54s-18.13 0-19.03-.03a2.14 2.14 0 0 1-1.45-.9c-.51-.73-.41-1.63-.41-1.63v-17.22c0-.46-.24-.64-.73-.64s-.74.18-.74.58v17.62Zm16.31-16.31c-1.08.23-2.17.38-4.26 2.35-2.08 2-3.62 1.9-5.16 1.82-1.54-.1-3.17-1.54-3.45-1.9-.33-.36-.9-.12-1.08.11-.16.24-.16.64.1 1 1.27 1.18 2.45 2.08 4.72 2.26a7.5 7.5 0 0 0 5.89-2.26c1.45-1.45 2.17-1.72 3.26-1.9a6.3 6.3 0 0 1 5.08 1.26c1 1.1 1.26.78 1.54.48.54-.72-.23-1.27-1.1-1.9a7.24 7.24 0 0 0-5.52-1.28l-.02-.04Zm-9.06 7.16c-1.18 0-2.08 1-2.08 2.26 0 1.27.9 2.27 2.08 2.27 1.18 0 2.08-1 2.08-2.27s-.9-2.26-2.08-2.26Zm11.78.78c-1.54 0-2.8 1.36-2.8 2.99 0 1.63 1.26 2.99 2.8 2.99 1.54 0 2.81-1.36 2.81-3 0-1.62-1.27-2.98-2.8-2.98Zm0 1.45c.8 0 1.45.7 1.45 1.54a1.5 1.5 0 0 1-1.45 1.54c-.8 0-1.45-.7-1.45-1.54 0-.86.65-1.54 1.45-1.54Z" fill="#fff"></path></svg><svg viewBox="0 0 268 112" fill="none" id="icon-cat-pro-tablet"><path d="M246.24 11.51a30.4 30.4 0 0 1 9-9.2c2-1.4 3.2-1.4 4.4 1.2 1.6 3.8 3 7.8 1.8 12a4.59 4.59 0 0 0 .8 4.2c1.2 1.6 2.2 3.2 3.2 4.6a12.54 12.54 0 0 1 1.8 12.4 10.86 10.86 0 0 0-.4 6.2c.4 1.98.4 4.02 0 6a7.5 7.5 0 0 1-5.4 6.4 10.42 10.42 0 0 0-6.4 4 2.09 2.09 0 0 1-1.8 1c-2.4.4-8.4-5-8.4-7.4v-1.2c.2-7.2-.2-7.8-6.8-10.8a8.78 8.78 0 0 1-3.6-2.4c-1.2-1.6-2.8-1.4-4.6-.8-1.8.6-2.8 1.8-2.6 3.8.6 4.85.8 9.73.6 14.6.01.56.15 1.1.4 1.6 6.2 9 8.6 19.6 11.6 29.8 2.4 7.8 6.8 12 14.8 12.6 1.28.1 2.55.3 3.8.6a8.32 8.32 0 0 1 6.8 6.4c1.4 4.2.6 5.2-3.6 5.2h-13a6.48 6.48 0 0 1-4.6-1.6 23.39 23.39 0 0 0-6.8-4 14.53 14.53 0 0 1-6.8-5.2 57.17 57.17 0 0 0-8-9c-5.6-5.8-11.6-11.4-16.8-17.4a22.77 22.77 0 0 1-6.4-15.2c0-1.8-.4-2.6-2.4-1.8-.6.38-1.3.6-2 .6-5.6 0-8.4 3.4-10.4 8.4-1.8 4.2-4.2 8.2-6.4 12.4a20.8 20.8 0 0 0-2 8.4c0 4.8 1.2 6.4 5.6 8 2.8 1 5.4 2 6.8 4.8 1.6 3.2 1.2 4-2.2 4.2h-13.6a3.76 3.76 0 0 1-3.8-2.2l-3.6-6a12.1 12.1 0 0 1-1.4-10.8c.86-3.47.93-7.1.2-10.6a16.84 16.84 0 0 1 3.4-14c1.2-1.4 1.2-2-.8-2.4a100.13 100.13 0 0 1-23.74-8.25.2.2 0 0 1-.06-.15c-6.4-2.4-7.6-2-9.4 4.6-1.6 5.6-3.2 11.2-4.4 17-1.4 6.4.2 12.4 2.2 18.4.8 2.4 3.2 2.2 5 2.8 4 1.2 7.4 2.8 9 7 1.4 3.2 1.2 3.6-2.2 3.6-3.4 0-6.8-.2-10.4 0-3.04.06-6-.93-8.4-2.8-9.6-6.4-12.4-16.2-13.2-26.8-.4-6.6-4-11.8-8.2-16.8-.8-1-1.6-1.4-2.8-.6a88.62 88.62 0 0 1-13.4 6 53.42 53.42 0 0 0-24.4 17.6 21.26 21.26 0 0 0-4.4 10.2c-.6 3.6.4 5.2 4 6.2s5.4 3 5.8 6.8c.2 1.6-.4 2.4-2 2.4h-16.2a3.3 3.3 0 0 1-2.6-1.6c-2.52-3.1-3.86-7-3.8-11-.1-6.9.5-13.8 1.8-20.6a12.6 12.6 0 0 1 6.8-9.6c11.8-5.6 18-16.2 23.6-27.2 1.2-2.2.2-2.6-1.8-2.4-5.6.78-10.9 2.98-15.4 6.4-5.9 4.3-11.45 9.05-16.6 14.2a33.34 33.34 0 0 1-20.6 9.8c-14.6.8-21.4-7.4-20.8-20.6.13-4.5 1.83-8.81 4.8-12.2a8.5 8.5 0 0 1 9-3c3 .8 3.8 2.4 2.6 5.4-.6 1.2-1.4 2.2-2 3.4a15 15 0 0 0-2 4c-2.2 6 .8 10.2 7 10.8 6.6.6 12-2.2 17-6.2a89.88 89.88 0 0 0 16-16.6 41.58 41.58 0 0 1 28.8-16.2c4.6-.6 8.6-2.6 13-3.8a83.01 83.01 0 0 1 25.4-3.6 26 26 0 0 0 11.6-2.2c9.8-4 20-4 30.2-2 8 1.6 16 3.6 23.8 5.6 4.64.87 9.41.73 14-.4a135.6 135.6 0 0 1 26.8-4c5.92-.28 11.83.88 17.2 3.4 4 1.8 4 1.8 3 5.6Z" fill="#000"></path></svg><svg viewBox="0 0 140 194" fill="none" id="icon-cat-slim-tablet"><path d="M109.68 0h-.76a7 7 0 0 0-2.92 3.18c-1.13 2.16-2 4.45-2.58 6.82a3.26 3.26 0 0 1-2.96 2.68 14.68 14.68 0 0 0-10.46 7.56 54.62 54.62 0 0 0-3.7 8c-2.84 7.36-5.02 14.96-7.7 22.38-1.26 3.38-1.32 3.38-5.12 3.38-4.54 0-4.22-.7-4.28 4.3 0 1.58.48 2.38 2.16 2.3.52 0 1.3-.26 1.5.42.2.68-.48.98-.88 1.38a18 18 0 0 1-8.66 4.88c-3.8 1.02-7.68 1.82-11.38 3.06-9.5 3.18-18.28 7.62-25.12 15.14a56 56 0 0 0-9.48 15.68c-7.34 17.28-10.9 35.48-13.66 53.86a375.77 375.77 0 0 0-2.92 26c-.36 4.28-.76 8.62-.76 12.98h66.66a4.36 4.36 0 0 0-.46-2.56 10 10 0 0 0-7.66-6.14c-1.4-.32-1.56-.74-.7-1.84a20.7 20.7 0 0 0 3.18-6.2c3.26-9.62 4.52-19.66 6.1-29.6a60 60 0 0 1 6.88-21.66 43.2 43.2 0 0 1 11.18-12.74c1.66-1.26 1.72-1.26 2 .88.2 1.42.24 2.88.34 4.32.6 9.45.48 18.93-.36 28.36-.76 7.31-.86 14.67-.3 22 .8 8.5 2.31 16.93 4.54 25.18h26.6a10.82 10.82 0 0 0-8.48-8.88 18 18 0 0 0-7.52.4c-1.2.28-1.7 0-1.8-1.3a112.7 112.7 0 0 1 2-31.64c2.67-12 4.71-24.14 6.12-36.36a35.5 35.5 0 0 1 4.56-14c2.38-4.24 4.46-8.64 6.8-12.9a11.75 11.75 0 0 0 .84-10.38c-.54-1.42-1.06-2.86-1.72-4.22-2-3.9-4-7.76-5.84-11.7-.98-2-.76-2.24 1.42-2.3 3.26 0 3.26 0 3.32-3.28v-1.32c0-1.38-.52-2.14-2-2h-3.04c-1.38 0-1.78-.58-1.44-2a12.48 12.48 0 0 1 10.26-8.86 44 44 0 0 1 13.24.86 2 2 0 0 0 2.5-1.28c.8-2 1.68-4 2.58-6a2 2 0 0 0-.2-2.28c-6.4-8.12-13.34-15.7-22.8-20.56a2.98 2.98 0 0 1-1.76-2.24 39.16 39.16 0 0 0-2.54-8.32 7 7 0 0 0-2.82-3.44Z" fill="#000"></path></svg></svg>